<?xml version="1.0" encoding="UTF-8"?>
<svg version="1.1" xmlns="http://www.w3.org/2000/svg" width="32" height="32">
<path d="M0 0 C0 1.65 0 3.3 0 5 C-2.05585097 6.17993203 -4.11836541 7.34378455 -6.1875 8.5 C-7.33605469 9.1496875 -8.48460938 9.799375 -9.66796875 10.46875 C-12.92018912 11.96332255 -14.51340039 12.52298994 -18 12 C-20.23828125 11.1171875 -20.23828125 11.1171875 -22.3125 9.875 C-23.00988281 9.48054688 -23.70726562 9.08609375 -24.42578125 8.6796875 C-26 7 -26 7 -26.23046875 3.8203125 C-26.15441406 2.88960937 -26.07835937 1.95890625 -26 1 C-25.17757813 1.09539063 -24.35515625 1.19078125 -23.5078125 1.2890625 C-16.99750551 1.93558259 -11.38700607 2.06883375 -5.0234375 0.47265625 C-3 0 -3 0 0 0 Z " fill="#3C5CAA" transform="translate(31,20)"/>
<path d="M0 0 C0 1.98 0 3.96 0 6 C-8.92460326 8.86260859 -17.18478513 7.93840496 -26 5 C-26 3.68 -26 2.36 -26 1 C-16.55123102 -1.5849028 -9.44007192 -2.43886045 0 0 Z " fill="#F69144" transform="translate(27,13)"/>
<path d="M0 0 C2.9921875 1.41015625 2.9921875 1.41015625 5.875 3.0625 C6.84179688 3.61035156 7.80859375 4.15820312 8.8046875 4.72265625 C9.89136719 5.35494141 9.89136719 5.35494141 11 6 C11 7.65 11 9.3 11 11 C10.21238281 10.84402344 9.42476562 10.68804687 8.61328125 10.52734375 C0.4891418 9.07557445 -6.8168203 9.00891113 -15 10 C-15 8.02 -15 6.04 -15 4 C-13.63798182 3.12528166 -12.25959437 2.27602497 -10.875 1.4375 C-10.10929688 0.96183594 -9.34359375 0.48617187 -8.5546875 -0.00390625 C-5.21485631 -1.30613401 -3.43734008 -0.94702227 0 0 Z " fill="#3C5CAA" transform="translate(20,1)"/>
<path d="M0 0 C3.63 0.66 7.26 1.32 11 2 C11 3.98 11 5.96 11 8 C7.37 8.66 3.74 9.32 0 10 C0 8.68 0 7.36 0 6 C-0.66 6 -1.32 6 -2 6 C-2 5.34 -2 4.68 -2 4 C-1.34 4 -0.68 4 0 4 C0 2.68 0 1.36 0 0 Z " fill="#FED53A" transform="translate(16,11)"/>
<path d="M0 0 C1.45880109 0.14107747 2.91703551 0.28802415 4.375 0.4375 C5.59316406 0.55931641 5.59316406 0.55931641 6.8359375 0.68359375 C9 1 9 1 11 2 C11 4.97 11 7.94 11 11 C6.61237247 9.90309312 3.85500277 8.29817473 0 6 C0 4.02 0 2.04 0 0 Z " fill="#1A2456" transform="translate(5,21)"/>
<path d="M0 0 C0 2.97 0 5.94 0 9 C-3.63 9.66 -7.26 10.32 -11 11 C-11 9.02 -11 7.04 -11 5 C-9.54462432 4.16151196 -8.08559627 3.32936066 -6.625 2.5 C-5.81289062 2.0359375 -5.00078125 1.571875 -4.1640625 1.09375 C-2 0 -2 0 0 0 Z " fill="#1A2456" transform="translate(16,0)"/>
<path d="M0 0 C4.95 0 9.9 0 15 0 C15 1.32 15 2.64 15 4 C12.87363187 3.71848084 10.74891472 3.42446737 8.625 3.125 C7.44164062 2.96257813 6.25828125 2.80015625 5.0390625 2.6328125 C2 2 2 2 0 0 Z " fill="#F47C1F" transform="translate(1,17)"/>
<path d="M0 0 C3.63 0 7.26 0 11 0 C11 0.66 11 1.32 11 2 C7.37 2.66 3.74 3.32 0 4 C0 2.68 0 1.36 0 0 Z " fill="#FECE07" transform="translate(16,17)"/>
</svg>
